<svg width="48" height="48" viewBox="0 0 48 48" fill="none" xmlns="http://www.w3.org/2000/svg">
<circle opacity="0.1" cx="24" cy="24" r="24" fill="#D94F3D"/>
<path d="M23.7778 18C25.1353 17.9992 26.4494 18.4789 27.4871 19.3542L30.3938 16.5862C28.1314 14.5002 25.0182 13.6025 21.9925 14.1638C18.9669 14.725 16.3827 16.6796 15.0191 19.4382L18.296 21.964C19.0797 19.6006 21.2878 18.0039 23.7778 18Z" fill="#D94F3D"/>
<path d="M18 23.7778C18.0008 23.1612 18.1008 22.5488 18.296 21.964L15.0191 19.4382C13.6603 22.1717 13.6603 25.3839 15.0191 28.1173L18.296 25.5916C18.1008 25.0067 18.0008 24.3943 18 23.7778Z" fill="#F2C042"/>
<path d="M33.1555 22H23.8222V26H29.1111C28.7965 27.131 28.0756 28.1062 27.0866 28.7387L30.3382 31.2453C32.416 29.3804 33.6369 26.348 33.1555 22Z" fill="#5085ED"/>
<path d="M27.0853 28.7387C26.0805 29.3138 24.9349 29.5968 23.7778 29.5556C21.2878 29.5517 19.0797 27.955 18.296 25.5916L15.0191 28.1174C16.6701 31.4454 20.0628 33.5519 23.7778 33.5556C26.1744 33.6207 28.5105 32.7976 30.3369 31.2445L27.0853 28.7387Z" fill="#57A75C"/>
</svg>
