<svg width="14" height="16" viewBox="0 0 14 16" fill="none" xmlns="http://www.w3.org/2000/svg">
<path d="M12.8889 3.28889C11.8818 3.02009 10.8979 2.67082 9.94667 2.24444C9.01086 1.83849 8.10749 1.36155 7.24444 0.817775L7 0.666664L6.76 0.82222C5.89696 1.36599 4.99358 1.84294 4.05778 2.24889C3.10502 2.67397 2.11962 3.02176 1.11111 3.28889L0.777779 3.37333V7.08C0.777779 13.0311 6.79111 15.2578 6.84889 15.28L7 15.3333L7.15111 15.28C7.21333 15.28 13.2222 13.0356 13.2222 7.08V3.37333L12.8889 3.28889ZM10.8578 6.24444L5.89333 11.0667L3.08445 8.25333C2.96657 8.13546 2.90035 7.97558 2.90035 7.80889C2.90035 7.64219 2.96657 7.48232 3.08445 7.36444C3.20232 7.24657 3.36219 7.18035 3.52889 7.18035C3.69559 7.18035 3.85546 7.24657 3.97333 7.36444L5.90667 9.33333L9.99111 5.33333C10.0495 5.27497 10.1188 5.22867 10.195 5.19708C10.2713 5.16549 10.353 5.14924 10.4356 5.14924C10.5181 5.14924 10.5998 5.16549 10.6761 5.19708C10.7523 5.22867 10.8216 5.27497 10.88 5.33333C10.9384 5.3917 10.9847 5.46099 11.0163 5.53724C11.0478 5.6135 11.0641 5.69523 11.0641 5.77777C11.0641 5.86032 11.0478 5.94205 11.0163 6.01831C10.9847 6.09456 10.9384 6.16385 10.88 6.22222L10.8578 6.24444Z" fill="#407BFF"/>
</svg>
