<svg width="48" height="48" viewBox="0 0 48 48" fill="none" xmlns="http://www.w3.org/2000/svg">
<circle opacity="0.1" cx="24" cy="24" r="24" fill="#0A66C2"/>
<g clip-path="url(#clip0_1_342)">
<path d="M31.0408 31.0411H28.0774V26.4003C28.0774 25.2936 28.0577 23.869 26.5362 23.869C24.9927 23.869 24.7566 25.0748 24.7566 26.3197V31.0408H21.7933V21.4974H24.6381V22.8016H24.6779C24.9626 22.3148 25.374 21.9143 25.8683 21.6429C26.3626 21.3714 26.9212 21.239 27.4848 21.26C30.4883 21.26 31.042 23.2356 31.042 25.8057L31.0408 31.0411ZM18.4495 20.1929C17.4998 20.1931 16.7297 19.4232 16.7295 18.4735C16.7294 17.5237 17.4991 16.7536 18.4489 16.7535C19.3987 16.7532 20.1688 17.5231 20.1689 18.4728C20.169 18.9289 19.9879 19.3664 19.6655 19.689C19.343 20.0115 18.9056 20.1928 18.4495 20.1929ZM19.9313 31.0412H16.9648V21.4974H19.9312V31.0411L19.9313 31.0412ZM32.5181 14.0014H15.4757C14.6702 13.9923 14.0097 14.6375 13.9998 15.443V32.5565C14.0094 33.3624 14.6698 34.0082 15.4756 33.9998H32.5181C33.3256 34.0098 33.9887 33.3639 33.9999 32.5565V15.4417C33.9884 14.6346 33.3252 13.9895 32.5181 14" fill="#0A66C2"/>
</g>
<defs>
<clipPath id="clip0_1_342">
<rect width="20" height="20" fill="white" transform="translate(14 14)"/>
</clipPath>
</defs>
</svg>
