<svg width="15" height="19" viewBox="0 0 15 19" fill="none" xmlns="http://www.w3.org/2000/svg">
<path d="M7.38745 19C6.05448 17.863 4.81893 16.6165 3.69373 15.2736C2.00517 13.2568 9.27541e-07 10.2533 9.27541e-07 7.39115C-0.000731378 5.92945 0.432175 4.50039 1.24393 3.28481C2.05569 2.06924 3.20982 1.1218 4.56024 0.562404C5.91066 0.00300428 7.39668 -0.143211 8.83024 0.142263C10.2638 0.427737 11.5804 1.13207 12.6135 2.16612C13.3014 2.85089 13.8466 3.66528 14.2176 4.56215C14.5886 5.45903 14.778 6.42058 14.7749 7.39115C14.7749 10.2533 12.7697 13.2568 11.0812 15.2736C9.95596 16.6165 8.72042 17.863 7.38745 19ZM7.38745 4.2251C6.54776 4.2251 5.74246 4.55867 5.14871 5.15242C4.55497 5.74617 4.2214 6.55146 4.2214 7.39115C4.2214 8.23084 4.55497 9.03614 5.14871 9.62989C5.74246 10.2236 6.54776 10.5572 7.38745 10.5572C8.22714 10.5572 9.03244 10.2236 9.62619 9.62989C10.2199 9.03614 10.5535 8.23084 10.5535 7.39115C10.5535 6.55146 10.2199 5.74617 9.62619 5.15242C9.03244 4.55867 8.22714 4.2251 7.38745 4.2251Z" fill="black"/>
</svg>
