<svg width="24" height="22" viewBox="0 0 24 22" fill="none" xmlns="http://www.w3.org/2000/svg">
<path d="M8.42731 16.611C8.01566 16.565 7.6447 16.8615 7.59875 17.2732C7.5528 17.6848 7.84927 18.0558 8.26093 18.1017L8.42731 16.611ZM15.5169 18.1017C15.9285 18.0558 16.225 17.6848 16.179 17.2732C16.1331 16.8615 15.7621 16.565 15.3505 16.611L15.5169 18.1017ZM15.957 18.6041C16.0565 18.202 15.8113 17.7954 15.4093 17.6958C15.0072 17.5962 14.6005 17.8414 14.5009 18.2435L15.957 18.6041ZM12.7231 20.9023L12.8964 21.632L12.7231 20.9023ZM11.0547 20.9023L10.8814 21.632H10.8814L11.0547 20.9023ZM9.27683 18.2435C9.17725 17.8414 8.77058 17.5962 8.36852 17.6958C7.96645 17.7954 7.72124 18.202 7.82082 18.6041L9.27683 18.2435ZM4.81072 6.44783L5.53426 6.64529L4.81072 6.44783ZM9.70623 1.35249L9.93599 2.06643L9.70623 1.35249ZM4.11111 9.01131L3.38757 8.81385L3.38287 8.83106L3.379 8.84848L4.11111 9.01131ZM3.55727 11.5015L4.28938 11.6643H4.28938L3.55727 11.5015ZM5.11863 16.8313L4.96995 17.5664H4.96995L5.11863 16.8313ZM5.55429 16.9194L5.70297 16.1843H5.70297L5.55429 16.9194ZM18.2235 16.9194L18.0748 16.1843H18.0748L18.2235 16.9194ZM18.6592 16.8313L18.8078 17.5664H18.8078L18.6592 16.8313ZM20.2205 11.5015L19.4884 11.6643V11.6643L20.2205 11.5015ZM19.6667 9.01131L20.3988 8.84848L20.3956 8.83402L20.3918 8.81969L19.6667 9.01131ZM18.9755 6.39577L18.2504 6.5874L18.9755 6.39577ZM14.2202 1.35973L14.4539 0.647057L14.2202 1.35973ZM20.7455 13.8334L20.0047 13.9502L20.7455 13.8334ZM3.03223 13.8334L3.77308 13.9502L3.03223 13.8334ZM8.26093 18.1017C10.672 18.3708 13.1058 18.3708 15.5169 18.1017L15.3505 16.611C13.05 16.8678 10.7278 16.8678 8.42731 16.611L8.26093 18.1017ZM12.8964 21.632C14.4033 21.2741 15.5849 20.1063 15.957 18.6041L14.5009 18.2435C14.2643 19.1991 13.5119 19.9441 12.5498 20.1726L12.8964 21.632ZM10.8814 21.632C11.5438 21.7893 12.234 21.7893 12.8964 21.632L12.5498 20.1726C12.1153 20.2758 11.6625 20.2758 11.228 20.1726L10.8814 21.632ZM7.82082 18.6041C8.19288 20.1063 9.37447 21.2741 10.8814 21.632L11.228 20.1726C10.2658 19.9441 9.51351 19.1991 9.27683 18.2435L7.82082 18.6041ZM5.53426 6.64529C6.12351 4.4862 7.79339 2.75596 9.93599 2.06643L9.47647 0.63855C6.85849 1.48107 4.81189 3.59493 4.08718 6.25037L5.53426 6.64529ZM4.83465 9.20878L5.53426 6.64529L4.08718 6.25037L3.38757 8.81385L4.83465 9.20878ZM4.28938 11.6643L4.84322 9.17414L3.379 8.84848L2.82516 11.3386L4.28938 11.6643ZM3.75 14.2464C3.75 14.1452 3.75793 14.0463 3.77308 13.9502L2.29138 13.7166C2.2641 13.8897 2.25 14.0667 2.25 14.2464H3.75ZM5.26731 16.0962C4.38324 15.9174 3.75 15.1429 3.75 14.2464H2.25C2.25 15.8592 3.38872 17.2466 4.96995 17.5664L5.26731 16.0962ZM5.70297 16.1843L5.26731 16.0962L4.96995 17.5664L5.40561 17.6545L5.70297 16.1843ZM18.0748 16.1843C13.9924 17.01 9.78538 17.01 5.70297 16.1843L5.40561 17.6545C9.68427 18.5199 14.0935 18.5199 18.3722 17.6545L18.0748 16.1843ZM18.5105 16.0962L18.0748 16.1843L18.3722 17.6545L18.8078 17.5664L18.5105 16.0962ZM20.0278 14.2464C20.0278 15.1429 19.3945 15.9174 18.5105 16.0962L18.8078 17.5664C20.3891 17.2466 21.5278 15.8592 21.5278 14.2464H20.0278ZM20.0047 13.9502C20.0198 14.0463 20.0278 14.1452 20.0278 14.2464H21.5278C21.5278 14.0667 21.5137 13.8897 21.4864 13.7166L20.0047 13.9502ZM18.9346 9.17414L19.4884 11.6643L20.9526 11.3386L20.3988 8.84848L18.9346 9.17414ZM18.2504 6.5874L18.9416 9.20293L20.3918 8.81969L19.7006 6.20415L18.2504 6.5874ZM13.9866 2.07239C16.0837 2.76002 17.6881 4.45984 18.2504 6.5874L19.7006 6.20415C19.0081 3.58388 17.0329 1.49266 14.4539 0.647057L13.9866 2.07239ZM9.93599 2.06643C11.2499 1.6436 12.6784 1.64347 13.9866 2.07239L14.4539 0.647057C12.8415 0.118357 11.0884 0.119786 9.47647 0.63855L9.93599 2.06643ZM21.4864 13.7166C21.3601 12.9155 21.1068 12.032 20.9526 11.3386L19.4884 11.6643C19.6754 12.5049 19.8863 13.1992 20.0047 13.9502L21.4864 13.7166ZM2.82516 11.3386C2.67094 12.032 2.41769 12.9155 2.29138 13.7166L3.77308 13.9502C3.89149 13.1992 4.10242 12.5049 4.28938 11.6643L2.82516 11.3386Z" fill="#344054"/>
</svg>
