<svg width="15" height="14" viewBox="0 0 15 14" fill="none" xmlns="http://www.w3.org/2000/svg">
<path d="M14.9176 5.11933C14.872 4.9959 14.7881 4.88746 14.6762 4.80737C14.5644 4.72728 14.4294 4.67906 14.2881 4.66866L10.1533 4.36666L8.36402 0.725994C8.30704 0.608736 8.21436 0.509142 8.09716 0.439233C7.97995 0.369323 7.84325 0.332087 7.70353 0.332016C7.56382 0.331946 7.42707 0.369045 7.30978 0.438836C7.1925 0.508627 7.09969 0.608127 7.04257 0.725328L5.25332 4.36666L1.11853 4.66866C0.979606 4.67878 0.846795 4.72547 0.735986 4.80315C0.625176 4.88083 0.541059 4.98621 0.493699 5.10668C0.446339 5.22715 0.43774 5.35762 0.468932 5.48246C0.500124 5.60731 0.569786 5.72125 0.669583 5.81066L3.72517 8.54866L2.64451 12.85C2.61169 12.9802 2.62221 13.1165 2.67469 13.2411C2.72717 13.3657 2.8192 13.473 2.93882 13.549C3.05845 13.6249 3.20015 13.6661 3.34555 13.6671C3.49094 13.6681 3.63331 13.6289 3.75418 13.5547L7.7033 11.1347L11.6524 13.5547C11.776 13.6301 11.9217 13.6689 12.0699 13.6659C12.2182 13.6629 12.3619 13.6182 12.4817 13.5379C12.6015 13.4576 12.6917 13.3455 12.7402 13.2167C12.7886 13.0879 12.793 12.9485 12.7527 12.8173L11.4261 8.55066L14.716 5.82933C14.9314 5.65066 15.0104 5.37199 14.9176 5.11933Z" fill="#F5BE16"/>
</svg>
